<?xml version="1.0" standalone="no"?>
<!DOCTYPE svg PUBLIC "-//W3C//DTD SVG 20010904//EN"
 "http://www.w3.org/TR/2001/REC-SVG-20010904/DTD/svg10.dtd">
<svg version="1.0" xmlns="http://www.w3.org/2000/svg"
 width="135.000000pt" height="135.000000pt" viewBox="0 0 135.000000 135.000000"
 preserveAspectRatio="xMidYMid meet">
<metadata>
Created by potrace 1.11, written by Peter Selinger 2001-2013
</metadata>
<g transform="translate(0.000000,135.000000) scale(0.100000,-0.100000)"
fill="#000000" stroke="none">
<path d="M358 1064 c-62 -19 -123 -77 -136 -129 -5 -22 -18 -75 -28 -117 -16
-68 -21 -78 -40 -78 -62 0 -113 -99 -94 -183 9 -41 35 -87 50 -87 5 0 14 -19
20 -42 16 -56 58 -94 121 -107 31 -7 200 -11 447 -11 365 0 400 2 438 19 45
20 81 61 91 100 3 14 16 37 28 51 35 39 45 65 45 115 0 59 -22 106 -61 129
-22 13 -28 23 -24 36 8 26 -10 56 -37 64 -31 8 -67 73 -58 106 10 37 -5 58
-51 72 -38 11 -43 10 -58 -8 -13 -16 -30 -19 -96 -20 -60 0 -99 -7 -159 -28
l-79 -28 -88 28 -89 29 0 41 c0 22 -5 45 -12 52 -16 16 -72 14 -130 -4z m62
-57 c-68 -17 -91 -30 -105 -58 -48 -93 28 -259 119 -259 17 0 49 9 71 20 45
23 45 23 45 11 0 -16 -85 -51 -126 -51 -57 0 -97 29 -129 94 -62 126 -17 234
105 256 47 9 64 -2 20 -13z m650 -64 c0 -3 -7 -30 -17 -59 -20 -64 -14 -75 57
-93 30 -8 50 -18 50 -27 0 -18 -7 -18 -60 1 -71 25 -78 22 -97 -45 -10 -33
-24 -60 -30 -60 -16 0 -16 1 3 66 19 67 13 78 -56 94 -31 7 -50 17 -50 26 0
18 2 18 66 -3 64 -20 75 -14 93 57 8 30 18 50 27 50 8 0 14 -3 14 -7z m-257
-70 c4 -3 -7 -30 -24 -59 -17 -30 -28 -58 -25 -63 3 -5 27 -21 54 -37 59 -34
55 -31 47 -44 -5 -7 -25 -1 -61 20 -30 17 -59 28 -63 25 -5 -3 -21 -26 -37
-53 -34 -59 -31 -55 -44 -47 -7 4 0 25 20 61 17 29 29 58 26 63 -3 5 -27 21
-54 37 -59 34 -55 31 -47 44 4 7 25 0 61 -20 29 -17 58 -29 64 -25 5 3 22 28
37 55 28 50 34 56 46 43z"/>
</g>
</svg>
